<svg width="428" height="570" viewBox="0 0 428 570" fill="none" xmlns="http://www.w3.org/2000/svg">
<path d="M0 445.478V0L309.477 567.327C239.241 567.652 143.921 573.176 97.8286 567.327C72.1904 564.074 58.3209 554.251 48.9143 546.856C37.208 537.654 27.2791 529.31 13.1692 505.915C4.86993 492.155 0 474.722 0 445.478Z" fill="white"/>
<path d="M373.442 550.755C348.044 566.352 336.129 566.027 323.587 567.327L222.936 382.117L428 0C427.686 149.792 427.765 454.248 427.059 465.949C425.178 497.142 413.577 511.764 411.068 515.663C407.001 521.986 394.989 537.523 373.442 550.755Z" fill="white"/>
</svg>
