<svg width="48" height="64" viewBox="0 0 48 64" fill="none" xmlns="http://www.w3.org/2000/svg">
<path d="M0.6 50.0186V2.35524L33.7016 63.1074C31.518 63.1295 29.1516 63.1884 26.7742 63.2476C25.1061 63.2891 23.4327 63.3307 21.8134 63.3599C17.5029 63.4375 13.5815 63.4266 11.047 63.1046C8.31935 62.7581 6.86448 61.723 5.8568 60.9299C4.58483 59.9288 3.52654 59.0441 1.99087 56.4949C1.13366 55.0719 0.6 53.2321 0.6 50.0186ZM41.5671 61.3281C40.1811 62.1802 39.1892 62.5814 38.3923 62.7913C37.7457 62.9615 37.2212 63.0099 36.6585 63.0617C36.6483 63.0626 36.6381 63.0636 36.6279 63.0645L25.6839 42.9026L47.3955 2.39784C47.3862 7.7679 47.3802 14.4299 47.3742 21.119C47.3607 36.2043 47.347 51.4275 47.2956 52.281C47.1943 53.9616 46.8329 55.18 46.4727 56.021C46.1719 56.7231 45.8744 57.1621 45.692 57.4313C45.6551 57.4858 45.6229 57.5333 45.5963 57.5747C45.1794 58.2235 43.8933 59.8979 41.5671 61.3281Z" fill="black" fill-opacity="0.67" stroke="black" stroke-width="1.2"/>
</svg>
